# xmcd
#
# Track frame offsets:
#	183
#	20433
#	45033
#	59283
#	83283
#	96933
#	120408
#	160383
#
# Disc length: 2297 seconds
#
# Revision: 2
# Processed by: cddbd v1.5.1PL0 Copyright (c) Steve Scherf et al.
# Submitted via: audiograbber 1.83.01
#
DISCID=4e08f708
DTITLE=Collins, Albert - Ice Pickin'
DYEAR=1978
DGENRE=Blues
TTITLE0=Honey, Hush!
TTITLE1=When The Welfare Turns Its Back On You
TTITLE2=Ice Pick
TTITLE3=Cold, Cold Feeling
TTITLE4=Too Tired
TTITLE5=Master Charge
TTITLE6=Conversation With Collins
TTITLE7=Avalanche
EXTD=
EXTT0=
EXTT1=
EXTT2=
EXTT3=
EXTT4=
EXTT5=
EXTT6=
EXTT7=
PLAYORDER=
